<svg xmlns="http://www.w3.org/2000/svg" width="640" height="420" viewBox="0 0 640 420" role="img" aria-labelledby="title desc">
  <title id="title">Dummy visual layanan komputer</title>
  <desc id="desc">Ilustrasi laptop dan perangkat untuk layanan instalasi, cleaning, repasta, dan penggantian part.</desc>
  <defs>
    <linearGradient id="bg" x1="58" y1="36" x2="576" y2="384" gradientUnits="userSpaceOnUse">
      <stop stop-color="#0F172A"/>
      <stop offset=".55" stop-color="#064E3B"/>
      <stop offset="1" stop-color="#14B8A6"/>
    </linearGradient>
    <linearGradient id="screen" x1="158" y1="98" x2="444" y2="262" gradientUnits="userSpaceOnUse">
      <stop stop-color="#F0FDFA"/>
      <stop offset="1" stop-color="#BBF7D0"/>
    </linearGradient>
  </defs>
  <rect width="640" height="420" rx="34" fill="url(#bg)"/>
  <circle cx="526" cy="86" r="70" fill="#A7F3D0" opacity=".16"/>
  <circle cx="96" cy="328" r="92" fill="#38BDF8" opacity=".11"/>
  <rect x="122" y="80" width="338" height="236" rx="28" fill="#020617"/>
  <rect x="150" y="112" width="282" height="168" rx="18" fill="url(#screen)"/>
  <path d="M184 147h130M184 178h202M184 209h155" stroke="#0F766E" stroke-width="14" stroke-linecap="round" opacity=".42"/>
  <path d="M245 316h95l18 46H227Z" fill="#334155"/>
  <rect x="198" y="358" width="190" height="20" rx="10" fill="#1E293B"/>
  <rect x="431" y="212" width="84" height="124" rx="24" fill="#E2E8F0"/>
  <circle cx="473" cy="254" r="16" fill="#10B981"/>
  <path d="M462 300h28" stroke="#0F172A" stroke-width="10" stroke-linecap="round"/>
  <rect x="474" y="140" width="64" height="44" rx="14" fill="#ECFDF5" opacity=".92"/>
  <path d="M492 162h28" stroke="#0F766E" stroke-width="9" stroke-linecap="round"/>
</svg>
