<svg xmlns="http://www.w3.org/2000/svg" width="640" height="420" viewBox="0 0 640 420" role="img" aria-labelledby="title desc">
  <title id="title">Dummy visual layanan website</title>
  <desc id="desc">Ilustrasi tampilan website untuk company profile, landing page, portfolio, dan SEO dasar.</desc>
  <defs>
    <linearGradient id="bg" x1="42" y1="46" x2="579" y2="378" gradientUnits="userSpaceOnUse">
      <stop stop-color="#022C22"/>
      <stop offset=".52" stop-color="#0F766E"/>
      <stop offset="1" stop-color="#0F172A"/>
    </linearGradient>
    <linearGradient id="card" x1="128" y1="92" x2="520" y2="322" gradientUnits="userSpaceOnUse">
      <stop stop-color="#FFFFFF"/>
      <stop offset="1" stop-color="#DCFCE7"/>
    </linearGradient>
  </defs>
  <rect width="640" height="420" rx="34" fill="url(#bg)"/>
  <path d="M0 319c78-46 156-58 239-35 94 26 177 23 253-22 56-33 101-78 148-136v294H0Z" fill="#F0FDF4" opacity=".1"/>
  <rect x="96" y="74" width="448" height="272" rx="30" fill="url(#card)"/>
  <rect x="96" y="74" width="448" height="52" rx="30" fill="#0F172A"/>
  <circle cx="132" cy="101" r="8" fill="#34D399"/>
  <circle cx="160" cy="101" r="8" fill="#FBBF24"/>
  <circle cx="188" cy="101" r="8" fill="#FB7185"/>
  <rect x="130" y="164" width="188" height="22" rx="11" fill="#064E3B"/>
  <rect x="130" y="203" width="244" height="13" rx="7" fill="#0F766E" opacity=".24"/>
  <rect x="130" y="230" width="196" height="13" rx="7" fill="#0F766E" opacity=".18"/>
  <rect x="130" y="266" width="102" height="38" rx="13" fill="#10B981"/>
  <rect x="392" y="166" width="100" height="92" rx="22" fill="#A7F3D0"/>
  <path d="M414 214l24 22 44-58" fill="none" stroke="#064E3B" stroke-width="13" stroke-linecap="round" stroke-linejoin="round"/>
  <rect x="366" y="276" width="154" height="16" rx="8" fill="#0F766E" opacity=".2"/>
</svg>
